<?xml version="1.0" encoding="UTF-8" standalone="no"?>
<svg
   xmlns:dc="http://purl.org/dc/elements/1.1/"
   xmlns:cc="http://creativecommons.org/ns#"
   xmlns:rdf="http://www.w3.org/1999/02/22-rdf-syntax-ns#"
   xmlns:svg="http://www.w3.org/2000/svg"
   xmlns="http://www.w3.org/2000/svg"
   xmlns:sodipodi="http://sodipodi.sourceforge.net/DTD/sodipodi-0.dtd"
   xmlns:inkscape="http://www.inkscape.org/namespaces/inkscape"
   width="43"
   height="23"
   viewBox="0 0 43 23"
   fill="none"
   version="1.1"
   id="svg4"
   sodipodi:docname="linkedIn.svg"
   inkscape:version="0.92.4 (5da689c313, 2019-01-14)">
  <metadata
     id="metadata10">
    <rdf:RDF>
      <cc:Work
         rdf:about="">
        <dc:format>image/svg+xml</dc:format>
        <dc:type
           rdf:resource="http://purl.org/dc/dcmitype/StillImage" />
        <dc:title></dc:title>
      </cc:Work>
    </rdf:RDF>
  </metadata>
  <defs
     id="defs8" />
  <sodipodi:namedview
     pagecolor="#ffffff"
     bordercolor="#666666"
     borderopacity="1"
     objecttolerance="10"
     gridtolerance="10"
     guidetolerance="10"
     inkscape:pageopacity="0"
     inkscape:pageshadow="2"
     inkscape:window-width="640"
     inkscape:window-height="480"
     id="namedview6"
     showgrid="false"
     inkscape:zoom="2.4748737"
     inkscape:cx="25.428089"
     inkscape:cy="40.134045"
     inkscape:window-x="0"
     inkscape:window-y="0"
     inkscape:window-maximized="0"
     inkscape:current-layer="svg4" />
  <rect
     opacity="0.3"
     x="0.5"
     y="0.5"
     width="42"
     height="22"
     rx="2.5"
     stroke="#7F8B98"
     id="rect2" />
  <g
     style="fill:none"
     id="g23"
     transform="translate(15.5,5.7958668)">
    <path
       id="path12"
       d="M 1.50914,0 C 0.596767,0 0,0.647702 0,1.49945 0,2.33264 0.579501,3 1.47374,3 H 1.49156 C 2.4216,3 3,2.33277 3,1.49945 2.98247,0.647702 2.4216,0 1.50914,0 Z M 11,6.51804 V 11 H 8.70733 V 6.81822 c 0,-1.0505 -0.33161,-1.76742 -1.16148,-1.76742 -0.6335,0 -1.0105,0.48315 -1.17636,0.95052 C 6.30901,6.1684 6.29344,6.40096 6.29344,6.63484 V 11 H 4 C 4,11 4.03089,3.91743 4,3.18363 H 6.29322 V 4.29157 C 6.29102,4.29548 6.28851,4.29954 6.28602,4.30358 6.28323,4.30809 6.28046,4.31258 6.27815,4.31682 H 6.29322 V 4.29157 C 6.5979,3.75974 7.14202,3 8.35993,3 9.86883,2.99997 11,4.11716 11,6.51804 Z M 2,11 H 0 V 4 h 2 z"
       inkscape:connector-curvature="0"
       style="clip-rule:evenodd;fill:#001832;fill-rule:evenodd" />
  </g>
</svg>
